{
  "asset": {
    "version": "2.0",
    "generator": "THREE.GLTFExporter"
  },
  "scenes": [
    {
      "nodes": [0]
    }
  ],
  "scene": 0,
  "nodes": [
    {
      "children": [8],
      "matrix": [0.01, 0, 0, 0, 0, 0.01, 0, 0, 0, 0, 0.01, 0, 0, 0, 0, 1]
    },
    {
      "matrix": [
        1, 0, 0, 0, 0, 1, 0, 0, 0, 0, 1, 0, 52.51848602294922, 98.5, 52.5, 1
      ],
      "name": "Cube 3",
      "mesh": 0
    },
    {
      "matrix": [
        1, 0, 0, 0, 0, 1, 0, 0, 0, 0, 1, 0, -46.51848602294922, -35.5, 52.5, 1
      ],
      "name": "Cube 2",
      "mesh": 1
    },
    {
      "matrix": [
        2.220446049250313e-16, 2.220446049250313e-16, 1, 0, -0.9999990019202716,
        0, 2.2204438330681233e-16, 0, 0, -1.047124508973399,
        2.3250834790231577e-16, 0, -39.725585018596576, -1.0000000000001878,
        26.815530692331397, 1
      ],
      "name": "Shape",
      "mesh": 2
    },
    {
      "matrix": [
        0.5883484054145521, 0.39223227027636803, -0.7071067811865475, 0,
        -0.554700196225229, 0.8320502943378437, 0, 0, 0.588348405414552,
        0.392232270276368, 0.7071067811865476, 0, 0, 0, 0, 1
      ],
      "name": "Directional Light",
      "extensions": {
        "KHR_lights_punctual": {
          "light": 0
        }
      }
    },
    {
      "matrix": [
        1, 0, 0, 0, 0, 1, 0, 0, 0, 0, 1, 0, 3, 11.957853107332028, 0, 1
      ],
      "name": "Rectangle",
      "mesh": 3
    },
    {
      "matrix": [
        1, 0, 0, 0, 0, 1, -6.123233995736761e-17, 0, 0, 6.123233995736761e-17,
        1, 0, 2.749187566691046e-21, -4.665791659674175e-13, 735.0914267792384,
        1
      ],
      "camera": 0
    },
    {
      "matrix": [1, 0, 0, 0, 0, 1, 0, 0, 0, 0, 1, 0, 0, 1, 0, 1],
      "name": "Default Ambient Light"
    },
    {
      "name": "Scene 1",
      "children": [1, 2, 3, 4, 5, 6, 7]
    }
  ],
  "bufferViews": [
    {
      "buffer": 0,
      "byteOffset": 0,
      "byteLength": 93312,
      "target": 34962,
      "byteStride": 12
    },
    {
      "buffer": 0,
      "byteOffset": 93312,
      "byteLength": 93312,
      "target": 34962,
      "byteStride": 12
    },
    {
      "buffer": 0,
      "byteOffset": 186624,
      "byteLength": 46656,
      "target": 34963
    },
    {
      "buffer": 0,
      "byteOffset": 233280,
      "byteLength": 93312,
      "target": 34962,
      "byteStride": 12
    },
    {
      "buffer": 0,
      "byteOffset": 326592,
      "byteLength": 93312,
      "target": 34962,
      "byteStride": 12
    },
    {
      "buffer": 0,
      "byteOffset": 419904,
      "byteLength": 46656,
      "target": 34963
    },
    {
      "buffer": 0,
      "byteOffset": 466560,
      "byteLength": 12,
      "target": 34962,
      "byteStride": 12
    },
    {
      "buffer": 0,
      "byteOffset": 466572,
      "byteLength": 12,
      "target": 34962,
      "byteStride": 12
    },
    {
      "buffer": 0,
      "byteOffset": 466584,
      "byteLength": 8,
      "target": 34962,
      "byteStride": 8
    },
    {
      "buffer": 0,
      "byteOffset": 466592,
      "byteLength": 12,
      "target": 34963
    },
    {
      "buffer": 0,
      "byteOffset": 466604,
      "byteLength": 48,
      "target": 34962,
      "byteStride": 12
    },
    {
      "buffer": 0,
      "byteOffset": 466652,
      "byteLength": 48,
      "target": 34962,
      "byteStride": 12
    },
    {
      "buffer": 0,
      "byteOffset": 466700,
      "byteLength": 32,
      "target": 34962,
      "byteStride": 8
    },
    {
      "buffer": 0,
      "byteOffset": 466732,
      "byteLength": 24,
      "target": 34963
    }
  ],
  "buffers": [
    {
      "byteLength": 466756,
      "uri": "data:application/octet-stream;base64,"
    }
  ],
  "accessors": [
    {
      "bufferView": 0,
      "componentType": 5126,
      "count": 7776,
      "max": [110.48151397705078, 8.5, 52.5],
      "min": [-110.48151397705078, -8.5, -52.5],
      "type": "VEC3"
    },
    {
      "bufferView": 1,
      "componentType": 5126,
      "count": 7776,
      "max": [0.9997587203979492, 0.9999998211860657, 0.9997705221176147],
      "min": [-0.9997587203979492, -0.9999998211860657, -0.9997705221176147],
      "type": "VEC3"
    },
    {
      "bufferView": 2,
      "componentType": 5125,
      "count": 11664,
      "max": [7775],
      "min": [0],
      "type": "SCALAR"
    },
    {
      "bufferView": 3,
      "componentType": 5126,
      "count": 7776,
      "max": [110.48151397705078, 8.5, 52.5],
      "min": [-110.48151397705078, -8.5, -52.5],
      "type": "VEC3"
    },
    {
      "bufferView": 4,
      "componentType": 5126,
      "count": 7776,
      "max": [0.9997587203979492, 0.9999998211860657, 0.9997705221176147],
      "min": [-0.9997587203979492, -0.9999998211860657, -0.9997705221176147],
      "type": "VEC3"
    },
    {
      "bufferView": 5,
      "componentType": 5125,
      "count": 11664,
      "max": [7775],
      "min": [0],
      "type": "SCALAR"
    },
    {
      "bufferView": 6,
      "componentType": 5126,
      "count": 1,
      "max": [0, 0, 0],
      "min": [0, 0, 0],
      "type": "VEC3"
    },
    {
      "bufferView": 7,
      "componentType": 5126,
      "count": 1,
      "max": [1, 0, 0],
      "min": [1, 0, 0],
      "type": "VEC3"
    },
    {
      "bufferView": 8,
      "componentType": 5126,
      "count": 1,
      "max": [0, 0],
      "min": [0, 0],
      "type": "VEC2"
    },
    {
      "bufferView": 9,
      "componentType": 5125,
      "count": 3,
      "max": [0],
      "min": [0],
      "type": "SCALAR"
    },
    {
      "bufferView": 10,
      "componentType": 5126,
      "count": 4,
      "max": [160, 160.04214477539062, 0],
      "min": [-160, -160.04214477539062, 0],
      "type": "VEC3"
    },
    {
      "bufferView": 11,
      "componentType": 5126,
      "count": 4,
      "max": [0, 0, 1],
      "min": [0, 0, 1],
      "type": "VEC3"
    },
    {
      "bufferView": 12,
      "componentType": 5126,
      "count": 4,
      "max": [1, 1],
      "min": [0, 0],
      "type": "VEC2"
    },
    {
      "bufferView": 13,
      "componentType": 5125,
      "count": 6,
      "max": [3],
      "min": [0],
      "type": "SCALAR"
    }
  ],
  "meshes": [
    {
      "primitives": [
        {
          "mode": 4,
          "attributes": {
            "POSITION": 0,
            "NORMAL": 1
          },
          "extras": {
            "type": "SubdivGeometry",
            "parameters": {
              "width": 220.96302795410156,
              "height": 17,
              "depth": 105
            }
          },
          "indices": 2
        }
      ]
    },
    {
      "primitives": [
        {
          "mode": 4,
          "attributes": {
            "POSITION": 3,
            "NORMAL": 4
          },
          "extras": {
            "type": "SubdivGeometry",
            "parameters": {
              "width": 220.96302795410156,
              "height": 17,
              "depth": 105
            }
          },
          "indices": 5
        }
      ]
    },
    {
      "primitives": [
        {
          "mode": 4,
          "attributes": {
            "POSITION": 6,
            "NORMAL": 7,
            "TEXCOORD_0": 8
          },
          "extras": {
            "parameters": {
              "width": 0,
              "subdivisions": 40,
              "roundness": 0,
              "extrudeBevelSize": 0,
              "extrudeBevelSegments": 3,
              "windingRule": 0,
              "height": 0,
              "depth": 0,
              "shape": {
                "points": [
                  {
                    "fi": 0.3890097836311625,
                    "id": "6ad1bd61-4a44-43ef-bfe3-d4716977862a",
                    "data": {
                      "position": [
                        -0.029619892969879658, -0.044018002238061626
                      ],
                      "controlPrevious": {
                        "position": [
                          -0.029619892969879658, -0.044018002238061626
                        ]
                      },
                      "controlNext": {
                        "position": [
                          -0.029619892969879658, -0.044018002238061626
                        ]
                      },
                      "areControlsDirectionsMirrored": true,
                      "roundness": 0
                    }
                  }
                ],
                "isClosed": true,
                "roundness": 0,
                "shapeHoles": []
              },
              "type": "VectorGeometry"
            },
            "shape": {
              "points": [
                -0.029619892969879658, -0.044018002238061626,
                -0.029619892969879658, -0.044018002238061626,
                -0.029619892969879658, -0.044018002238061626, 0
              ],
              "shapeHoles": [],
              "isClosed": true,
              "roundness": 0
            },
            "type": "VectorGeometry"
          },
          "indices": 9
        }
      ]
    },
    {
      "primitives": [
        {
          "mode": 4,
          "attributes": {
            "POSITION": 10,
            "NORMAL": 11,
            "TEXCOORD_0": 12
          },
          "extras": {
            "shape": {
              "points": [
                -160, 160.04214689266797, -160, 160.04214689266797, -160,
                160.04214689266797, 0, 160, 160.04214689266797, 160,
                160.04214689266797, 160, 160.04214689266797, 0, 160,
                -160.04214689266797, 160, -160.04214689266797, 160,
                -160.04214689266797, 0, -160, -160.04214689266797, -160,
                -160.04214689266797, -160, -160.04214689266797, 0
              ],
              "shapeHoles": [],
              "isClosed": true,
              "roundness": 0
            },
            "parameters": {
              "width": 320,
              "depth": 0,
              "cornerRadius": [0, 0, 0, 0],
              "cornerType": 1,
              "extrudeBevelSize": 0,
              "extrudeBevelSegments": 1,
              "height": 320.08429378533594,
              "type": "RectangleGeometry"
            },
            "ui": {
              "enabledIndieCorners": false
            },
            "type": "RectangleGeometry"
          },
          "indices": 13
        }
      ]
    }
  ],
  "extensions": {
    "KHR_lights_punctual": {
      "lights": [
        {
          "name": "Directional Light",
          "color": [1, 1, 1],
          "intensity": 0.7,
          "type": "directional"
        }
      ]
    }
  },
  "cameras": [
    {
      "type": "perspective",
      "perspective": {
        "aspectRatio": 1.7668711656441718,
        "yfov": 0.7853981633974483,
        "zfar": 100000,
        "znear": 70
      }
    }
  ],
  "extensionsUsed": ["KHR_lights_punctual"]
}
